<svg width="55" height="54" viewBox="0 0 55 54" fill="none" xmlns="http://www.w3.org/2000/svg">
<path d="M27.5002 0.699951C12.6999 0.699951 0.700195 12.6996 0.700195 27.4999C0.700195 40.058 9.34766 50.5658 21.0057 53.4736C20.8806 53.1118 20.8002 52.6919 20.8002 52.1716V47.591C19.7126 47.591 17.8902 47.591 17.4323 47.591C15.5988 47.591 13.9684 46.8026 13.1778 45.3376C12.3001 43.7095 12.1483 41.2193 9.97299 39.6962C9.32756 39.1892 9.81889 38.6108 10.5626 38.6889C11.9361 39.0775 13.0751 40.02 14.1471 41.4181C15.2146 42.8184 15.7171 43.1355 17.7115 43.1355C18.6785 43.1355 20.1257 43.0797 21.4881 42.8653C22.2206 41.0049 23.4869 39.2919 25.0346 38.4835C16.1102 37.5656 11.8512 33.1257 11.8512 27.0979C11.8512 24.5028 12.9567 21.9925 14.835 19.8776C14.2186 17.7782 13.4436 13.4969 15.0717 11.8666C19.0872 11.8666 21.5149 14.4707 22.0978 15.1742C24.0988 14.4885 26.2964 14.0999 28.6057 14.0999C30.9194 14.0999 33.126 14.4885 35.1315 15.1786C35.7077 14.4796 38.1376 11.8666 42.162 11.8666C43.7968 13.4992 43.0129 17.7983 42.3898 19.8932C44.2569 22.0037 45.3557 24.5073 45.3557 27.0979C45.3557 33.1212 41.1034 37.5589 32.1924 38.4812C34.6446 39.7609 36.4335 43.3566 36.4335 46.0656V52.1716C36.4335 52.4038 36.3822 52.5713 36.3554 52.7701C46.7984 49.1097 54.3002 39.1937 54.3002 27.4999C54.3002 12.6996 42.3005 0.699951 27.5002 0.699951Z" fill="#92A8C8"/>
</svg>
