<svg width="51" height="51" viewBox="0 0 51 51" fill="none" xmlns="http://www.w3.org/2000/svg">
<path d="M15.2399 0.420044C7.06895 0.420044 0.419922 7.06907 0.419922 15.24V35.76C0.419922 43.931 7.06895 50.58 15.2399 50.58H35.7599C43.9309 50.58 50.5799 43.931 50.5799 35.76V15.24C50.5799 7.06907 43.9309 0.420044 35.7599 0.420044H15.2399ZM15.2399 2.70004H35.7599C42.6985 2.70004 48.2999 8.30146 48.2999 15.24V35.76C48.2999 42.6986 42.6985 48.3 35.7599 48.3H15.2399C8.30133 48.3 2.69992 42.6986 2.69992 35.76V15.24C2.69992 8.30146 8.30133 2.70004 15.2399 2.70004ZM39.1799 9.54004C37.9207 9.54004 36.8999 10.5608 36.8999 11.82C36.8999 13.0793 37.9207 14.1 39.1799 14.1C40.4391 14.1 41.4599 13.0793 41.4599 11.82C41.4599 10.5608 40.4391 9.54004 39.1799 9.54004ZM25.4999 12.96C18.5878 12.96 12.9599 18.5879 12.9599 25.5C12.9599 32.4122 18.5878 38.04 25.4999 38.04C32.4121 38.04 38.0399 32.4122 38.0399 25.5C38.0399 18.5879 32.4121 12.96 25.4999 12.96ZM25.4999 15.24C31.1799 15.24 35.7599 19.8201 35.7599 25.5C35.7599 31.18 31.1799 35.76 25.4999 35.76C19.82 35.76 15.2399 31.18 15.2399 25.5C15.2399 19.8201 19.82 15.24 25.4999 15.24Z" fill="#92A8C8"/>
</svg>
