<svg width="57" height="57" viewBox="0 0 57 57" fill="none" xmlns="http://www.w3.org/2000/svg">
<path d="M6.78571 0C3.05422 0 0 3.05422 0 6.78571V50.2143C0 53.9458 3.05422 57 6.78571 57H50.2143C53.9458 57 57 53.9458 57 50.2143V6.78571C57 3.05422 53.9458 0 50.2143 0H6.78571ZM6.78571 2.71429H50.2143C52.4786 2.71429 54.2857 4.52135 54.2857 6.78571V50.2143C54.2857 52.4786 52.4786 54.2857 50.2143 54.2857H6.78571C4.52135 54.2857 2.71429 52.4786 2.71429 50.2143V6.78571C2.71429 4.52135 4.52135 2.71429 6.78571 2.71429ZM13.5714 9.51591C12.0851 9.51591 10.7475 9.96018 9.75711 10.7935C8.76671 11.6269 8.15876 12.8718 8.15876 14.2049C8.15876 16.739 10.3568 18.7145 13.1526 18.9099C13.1544 18.9108 13.1562 18.9116 13.1579 18.9125C13.2912 18.9579 13.4307 18.9821 13.5714 18.9841C16.6562 18.9841 18.9841 16.8232 18.9841 14.2049C18.9839 14.1811 18.983 14.1572 18.9815 14.1334C18.8434 11.5545 16.5442 9.51591 13.5714 9.51591ZM13.5714 12.1984C15.4609 12.1984 16.207 13.0422 16.2884 14.2394C16.2719 15.4015 15.553 16.3016 13.5714 16.3016C11.6912 16.3016 10.8412 15.3387 10.8412 14.2049C10.8412 13.6381 11.0481 13.2108 11.4827 12.8452C11.9173 12.4795 12.6149 12.1984 13.5714 12.1984ZM9.5 20.3571C8.7505 20.3572 8.14294 20.9648 8.14286 21.7143V47.5C8.14294 48.2495 8.7505 48.8571 9.5 48.8571H17.6429C18.3924 48.8571 18.9999 48.2495 19 47.5V39.54V21.7143C18.9999 20.9648 18.3924 20.3572 17.6429 20.3571H9.5ZM21.7143 20.3571C20.9648 20.3572 20.3572 20.9648 20.3571 21.7143V47.5C20.3572 48.2495 20.9648 48.8571 21.7143 48.8571H29.8571C30.6066 48.8571 31.2142 48.2495 31.2143 47.5V33.9286C31.2143 32.8026 31.5215 31.6825 32.0625 30.9492C32.6035 30.2159 33.2859 29.7758 34.5833 29.7988C35.9211 29.8218 36.6293 30.2801 37.165 30.9996C37.7008 31.719 38 32.7976 38 33.9286V47.5C38.0001 48.2495 38.6076 48.8571 39.3571 48.8571H47.5C48.2495 48.8571 48.857 48.2495 48.8571 47.5V32.9266C48.8571 28.9074 47.6666 25.7237 45.626 23.5698C43.5853 21.4158 40.7471 20.3571 37.7455 20.3571C34.8928 20.3571 32.7219 21.3138 31.2143 22.2895V21.7143C31.2142 20.9648 30.6066 20.3572 29.8571 20.3571H21.7143ZM10.8571 23.0714H16.2857V39.54V46.1429H10.8571V23.0714ZM23.0714 23.0714H28.5V25.1893C28.5002 25.7729 28.8734 26.291 29.4268 26.4761C29.9803 26.6612 30.5901 26.4718 30.9413 26.0057C30.9413 26.0057 33.0725 23.0714 37.7455 23.0714C40.125 23.0714 42.1656 23.8621 43.6565 25.4358C45.1475 27.0096 46.1428 29.4341 46.1428 32.9266V46.1429H40.7143V33.9286C40.7143 32.3452 40.3349 30.7082 39.3439 29.3774C38.3528 28.0465 36.686 27.1199 34.631 27.0845C32.5653 27.0479 30.8716 27.9938 29.8783 29.3403C28.885 30.6868 28.5 32.3403 28.5 33.9286V46.1429H23.0714L23.0714 23.0714Z" fill="#92A8C8"/>
</svg>
