<svg width="53" height="53" viewBox="0 0 53 53" fill="none" xmlns="http://www.w3.org/2000/svg">
<path d="M26.5003 0.280041C12.0331 0.280041 0.280273 12.0329 0.280273 26.5C0.280273 31.1502 1.55558 35.4899 3.68247 39.2783L0.322579 51.2728C0.213344 51.6634 0.319831 52.0826 0.602232 52.3737C0.884633 52.6648 1.30041 52.784 1.69414 52.6866L14.2007 49.5873C17.8757 51.5492 22.0458 52.72 26.5003 52.72C40.9674 52.72 52.7203 40.9672 52.7203 26.5C52.7203 12.0329 40.9674 0.280041 26.5003 0.280041ZM26.5003 2.56004C39.7351 2.56004 50.4403 13.2652 50.4403 26.5C50.4403 39.7349 39.7351 50.44 26.5003 50.44C22.2572 50.44 18.2833 49.3338 14.8286 47.4008C14.576 47.2596 14.2791 47.2198 13.9981 47.2894L3.04566 50.0036L5.9825 39.5254C6.06742 39.2262 6.0264 38.9053 5.86894 38.637C3.76945 35.0769 2.56027 30.9347 2.56027 26.5C2.56027 13.2652 13.2654 2.56004 26.5003 2.56004ZM16.9728 12.82C16.242 12.82 15.1984 13.0919 14.341 14.0157C13.8261 14.5706 11.6803 16.6613 11.6803 20.3369C11.6803 24.169 14.3381 27.4757 14.6594 27.9006H14.6616V27.9028C14.6312 27.8627 15.0695 28.4975 15.6547 29.2587C16.2399 30.02 17.0581 31.0197 18.0861 32.1021C20.1421 34.2668 23.0327 36.7685 26.6205 38.2986C28.2727 39.0022 29.5762 39.427 30.5637 39.737C32.3939 40.3116 34.0608 40.2243 35.313 40.0398C36.2503 39.9017 37.2811 39.4517 38.3011 38.8063C39.321 38.1608 40.3206 37.3582 40.7614 36.1388C41.0772 35.2647 41.2377 34.4568 41.2958 33.792C41.3248 33.4597 41.3285 33.1663 41.3069 32.8947C41.2853 32.6232 41.3084 32.4151 41.0553 31.9997C40.5246 31.1282 39.9235 31.1055 39.2963 30.7951C38.9479 30.6226 37.9557 30.1382 36.9607 29.664C35.9667 29.1904 35.106 28.7709 34.576 28.5819C34.2411 28.4614 33.8322 28.288 33.2423 28.3548C32.6524 28.4216 32.0697 28.8472 31.7305 29.35C31.4089 29.8267 30.1145 31.3546 29.7199 31.8037C29.7146 31.8005 29.7489 31.8163 29.593 31.7391C29.1049 31.4976 28.508 31.2922 27.6247 30.8263C26.7414 30.3603 25.6365 29.6722 24.4273 28.6064V28.6042C22.6277 27.0198 21.3672 25.0307 20.9695 24.3626C20.9963 24.3307 20.9663 24.3693 21.0229 24.3136L21.0252 24.3113C21.4316 23.911 21.7918 23.4329 22.0961 23.0823C22.5277 22.5851 22.7181 22.1469 22.9244 21.7374C23.3356 20.9214 23.1066 20.0234 22.8687 19.551V19.5487C22.8852 19.5814 22.7401 19.2612 22.5837 18.8919C22.427 18.5215 22.2272 18.0413 22.0137 17.5292C21.5869 16.5051 21.1104 15.3565 20.827 14.6837V14.6815C20.4931 13.889 20.0415 13.3182 19.451 13.0427C18.8605 12.7673 18.3387 12.8456 18.3176 12.8446H18.3154C17.894 12.8251 17.4316 12.82 16.9728 12.82ZM16.9728 15.1C17.4123 15.1 17.8456 15.1054 18.2086 15.1223C18.5819 15.1409 18.5587 15.1424 18.4869 15.1089C18.4139 15.0749 18.5129 15.0639 18.7251 15.5676C19.0026 16.2264 19.4815 17.3792 19.9096 18.4065C20.1237 18.9201 20.3241 19.4022 20.4841 19.7803C20.6441 20.1583 20.7308 20.3695 20.8314 20.5707V20.5729L20.8337 20.5751C20.9323 20.7698 20.9236 20.6452 20.8893 20.7132C20.6488 21.1906 20.6161 21.3079 20.3728 21.5882C20.0023 22.0151 19.6243 22.4911 19.4243 22.6881C19.2492 22.8601 18.9334 23.1279 18.7362 23.6522C18.5388 24.1774 18.6309 24.8978 18.9478 25.4357C19.3696 26.1518 20.7597 28.4144 22.92 30.3163C24.2804 31.5156 25.5479 32.3094 26.5604 32.8435C27.5729 33.3776 28.3976 33.6895 28.5821 33.7809C29.0203 33.9977 29.4992 34.1661 30.0561 34.0993C30.613 34.0324 31.0931 33.6945 31.3987 33.3489L31.4009 33.3467C31.8077 32.8856 33.0163 31.5055 33.5963 30.6548C33.6209 30.6635 33.6129 30.6567 33.8056 30.726V30.7283H33.8078C33.8959 30.7596 34.9982 31.253 35.981 31.7213C36.9638 32.1896 37.9613 32.6764 38.2855 32.8368C38.7532 33.0683 38.9743 33.2191 39.0314 33.2198C39.0352 33.3201 39.0391 33.4288 39.0247 33.5939C38.9847 34.0517 38.8623 34.6855 38.6172 35.364C38.4972 35.6961 37.8718 36.3812 37.0831 36.8803C36.2945 37.3794 35.3345 37.7319 34.979 37.7843C33.9102 37.9417 32.6411 37.9992 31.2473 37.5616C30.2809 37.2583 29.0759 36.8656 27.5156 36.2012C24.3512 34.8516 21.6616 32.5552 19.7404 30.5323C18.7798 29.5209 18.0102 28.5794 17.4627 27.8671C16.9161 27.1562 16.6775 26.7862 16.4785 26.5245L16.4763 26.5223C16.1231 26.0552 13.9603 23.0468 13.9603 20.3369C13.9603 17.4689 15.2924 16.3443 16.0132 15.5676C16.3916 15.1599 16.8053 15.1 16.9728 15.1Z" fill="#92A8C8"/>
</svg>
